<?xml version="1.0" encoding="iso-8859-1"?>
<!-- Generator: Adobe Illustrator 19.0.0, SVG Export Plug-In . SVG Version: 6.00 Build 0)  -->
<svg version="1.1" id="Capa_1" xmlns="http://www.w3.org/2000/svg" xmlns:xlink="http://www.w3.org/1999/xlink" x="0px" y="0px"
	 viewBox="0 0 418.065 418.065" style="enable-background:new 0 0 418.065 418.065;" xml:space="preserve">
<polygon style="fill:#D4E1F4;" points="403.331,111.857 403.331,306.208 363.624,306.208 363.624,363.155 283.69,306.208 
	164.049,306.208 164.049,243.514 289.437,243.514 289.437,111.857 "/>
<polygon style="fill:#4DCFE0;" points="289.437,111.857 289.437,243.514 164.049,243.514 141.061,243.514 66.873,311.955 
	66.873,243.514 15.673,243.514 15.673,54.91 289.437,54.91 "/>
<path style="fill:#3A2C51;" d="M403.331,96.184h-98.22V54.91c0-8.882-6.792-15.673-15.673-15.673H15.673
	C6.792,39.237,0,46.029,0,54.91v188.604c0,8.882,6.792,15.673,15.673,15.673H51.2v52.767c0,6.269,3.657,12.016,9.404,14.106
	c2.09,1.045,4.18,1.567,6.269,1.567c3.657,0,7.837-1.567,10.449-4.18l69.486-64.261h1.045v47.02c0,8.882,6.792,15.673,15.673,15.673
	h114.416l75.755,53.812c2.612,2.09,5.747,3.135,8.882,3.135c2.612,0,4.702-0.522,7.314-1.567c5.224-2.612,8.359-7.837,8.359-14.106
	v-41.273h24.033c8.882,0,15.673-6.792,15.673-15.673V111.857C419.004,102.976,412.212,96.184,403.331,96.184z M141.061,227.841
	c-4.18,0-7.837,1.567-10.449,4.18l-48.065,44.408v-32.914c0-8.882-6.792-15.673-15.673-15.673H31.347V70.584h242.416v157.257
	H141.061z M387.657,290.535h-24.033c-8.882,0-15.673,6.792-15.673,15.673v26.645l-55.38-39.184c-2.612-2.09-5.747-3.135-8.882-3.135
	H179.722v-31.347h109.714c8.882,0,15.673-6.792,15.673-15.673V127.531h82.547L387.657,290.535L387.657,290.535z"/>
<g>
</g>
<g>
</g>
<g>
</g>
<g>
</g>
<g>
</g>
<g>
</g>
<g>
</g>
<g>
</g>
<g>
</g>
<g>
</g>
<g>
</g>
<g>
</g>
<g>
</g>
<g>
</g>
<g>
</g>
</svg>
